PathFileType	4	(X/Y/Z)	D:\MotionData\Pi-Spi Study\20230118_AMCsubject1\Trimmed_left_abd_001_rotated.trc
DataRate	CameraRate	NumFrames	NumMarkers	Units	OrigDataRate	OrigDataStartFrame	OrigNumFrames
200.00	200.00	       9	35	mm	200.00	151	       200
Frame#	Time	C7			Sternum			r_AMC1			r_AMC2			r_AMC3			l_AMC1			l_AMC2			l_AMC3			PX			T8			r_humerous			r_elbow_medial			r_elbow_lateral			r_forearm			r_wrist_radius			r_wrist_ulna			r_MCP_1			r_MCP_3			l_humerous			l_elbow_medial			l_elbow_lateral			l_forearm			l_wrist_radius			l_wrist_ulna			l_MCP_1			l_MCP_3			r_ASIS			r_PSIS			l_ASIS			l_PSIS			r_IC			l_IC			TS			AI			AA			
		X1	Y1	Z1	X2	Y2	Z2	X3	Y3	Z3	X4	Y4	Z4	X5	Y5	Z5	X6	Y6	Z6	X7	Y7	Z7	X8	Y8	Z8	X9	Y9	Z9	X10	Y10	Z10	X11	Y11	Z11	X12	Y12	Z12	X13	Y13	Z13	X14	Y14	Z14	X15	Y15	Z15	X16	Y16	Z16	X17	Y17	Z17	X18	Y18	Z18	X19	Y19	Z19	X20	Y20	Z20	X21	Y21	Z21	X22	Y22	Z22	X23	Y23	Z23	X24	Y24	Z24	X25	Y25	Z25	X26	Y26	Z26	X27	Y27	Z27	X28	Y28	Z28	X29	Y29	Z29	X30	Y30	Z30	X31	Y31	Z31	X32	Y32	Z32	X33	Y33	Z33	X34	Y34	Z34	X35	Y35	Z35	

151	0.75	208.643	1374.5939	-206.2052	336.7414	1302.5713	-199.0398	208.7132	1315.7863	-39.87	247.5704	1311.898	-8.9878	268.5933	1346.4031	-29.2144	229.1307	1324.3807	-372.2255	268.2465	1316.1017	-403.7924	292.226	1351.4283	-374.0163	391.2786	1112.4003	-195.133	158.2799	1191.4105	-216.6228	314.5613	1124.9086	-1.4003	250.1561	986.4225	-32.7314	256.6108	995.3453	35.6401	312.0439	841.1829	61.0753	364.1074	779.558	45.5456	315.2154	771.8066	60.6903	387.1476	697.3082	59.6293	337.8609	692.8631	70.7685	351.7339	1122.9763	-395.3692	290.9524	993.4083	-367.6243	295.1087	989.2845	-419.9295	330.2952	839.8973	-452.2236	371.3177	766.6787	-447.1734	326.5438	762.9618	-446.7146	379.6837	687.1753	-457.609	330.3811	684.8146	-452.1174	376.2471	906.7471	-66.2123	187.0762	923.9991	-152.3481	380.5851	893.351	-328.2926	189.3355	918.6425	-255.7103	285.9648	966.1315	-41.0153	288.957	938.7902	-366.329	134.1488	1309.3373	-322.3816	119.7143	1209.5046	-314.1081	210.7704	1293.7312	-436.6182
152	0.755	208.6337	1374.6089	-206.1877	336.7334	1302.5938	-199.0116	208.6804	1315.7999	-39.826	247.5583	1311.8845	-8.9655	268.5767	1346.4367	-29.226	229.1438	1324.3501	-372.1877	268.2381	1316.0889	-403.788	292.2323	1351.4296	-374.0277	391.3077	1112.3926	-195.1747	158.2513	1191.4232	-216.5872	314.5106	1124.9591	-1.3815	250.1126	986.423	-32.7199	256.5779	995.3159	35.6025	312.0016	841.2024	61.1079	364.1125	779.4868	45.5689	315.165	771.8365	60.6725	387.2143	697.1836	59.6179	337.8589	692.7576	70.802	351.7246	1122.9597	-395.412	290.9181	993.4157	-367.6128	295.1187	989.2653	-419.9057	330.299	839.9289	-452.2174	371.3198	766.6903	-447.1667	326.5378	762.9648	-446.7163	379.7127	687.165	-457.5892	330.9157	683.9613	-451.8655	376.2557	906.7946	-66.1784	187.0583	923.986	-152.3506	380.585	893.3444	-328.2733	189.3236	918.6233	-255.7098	285.9405	966.1113	-41.0009	288.967	938.7868	-366.3342	134.1818	1309.3543	-322.3895	119.664	1209.485	-314.0659	210.7884	1293.7136	-436.6178
153	0.76	208.6156	1374.6044	-206.1923	336.732	1302.6095	-199.0175	208.6795	1315.8014	-39.8498	247.5434	1311.896	-8.9441	268.5605	1346.432	-29.2421	229.0945	1324.4022	-372.223	268.2278	1316.0907	-403.7877	292.2092	1351.424	-374.0193	391.2944	1112.3628	-195.1635	158.2667	1191.4266	-216.6131	314.5119	1124.9376	-1.3807	250.1033	986.4221	-32.7227	256.5545	995.3182	35.605	311.9365	841.227	61.1101	363.9908	779.566	45.6241	315.1178	771.8223	60.7092	387.1063	697.282	59.666	337.8832	692.6746	70.8176	351.7423	1122.9503	-395.395	290.8992	993.3903	-367.6729	295.1343	989.2542	-419.9084	330.2808	839.8964	-452.2059	371.3121	766.6992	-447.1363	326.5432	762.9567	-446.6779	379.5948	687.3269	-457.5728	330.9165	683.9578	-451.8578	376.2165	906.7867	-66.1777	187.063	923.9695	-152.3553	380.5672	893.3557	-328.2998	189.3243	918.6389	-255.7015	285.9093	966.1528	-41.0012	289.0114	938.7142	-366.3043	134.108	1309.3279	-322.3359	119.6415	1209.4493	-314.0656	210.7795	1293.6744	-436.6373
154	0.765	208.6192	1374.5941	-206.1968	336.7183	1302.6086	-199.0231	208.6658	1315.7959	-39.8396	247.5503	1311.8868	-8.9512	268.5611	1346.4155	-29.2281	229.0935	1324.3706	-372.1832	268.2226	1316.0887	-403.793	292.2529	1351.4993	-374.3782	391.3139	1112.4029	-195.1737	158.2564	1191.4286	-216.6128	314.5226	1124.9176	-1.381	250.0792	986.4257	-32.7226	256.5425	995.3131	35.5927	311.8948	841.194	61.1487	364.0676	779.4727	45.5307	315.0235	771.8915	60.7119	387.0384	697.2905	59.6918	337.7703	692.7109	70.8103	351.7296	1122.9829	-395.4009	290.8823	993.4232	-367.684	295.115	989.2528	-419.9124	330.3071	839.9023	-452.1929	371.3396	766.6849	-447.1273	326.5732	762.9352	-446.6699	379.6756	687.2391	-457.643	330.8939	683.9716	-451.8456	376.2856	906.8183	-66.2026	187.0488	923.9714	-152.3498	380.5985	893.3601	-328.2577	189.3049	918.6058	-255.6941	285.9202	966.1244	-41.0416	288.9633	938.7847	-366.3301	134.1553	1309.3026	-322.3885	119.6772	1209.4668	-314.0843	210.7951	1293.6575	-436.6736
155	0.77	208.6332	1374.6044	-206.1983	336.7173	1302.6229	-199.0029	208.6698	1315.8052	-39.832	247.5256	1311.9092	-8.9718	268.5552	1346.4352	-29.229	229.09	1324.4053	-372.1851	268.2152	1316.0867	-403.796	292.2476	1351.5394	-374.4046	391.3008	1112.4271	-195.1767	158.255	1191.3995	-216.6159	314.4776	1124.9262	-1.3728	250.1021	986.4347	-32.7381	256.4995	995.3373	35.6539	311.8707	841.2128	61.1333	364.0654	779.4399	45.5606	314.9911	771.8675	60.8001	387.0398	697.2208	59.7169	337.6983	692.7631	70.8498	351.7045	1123.0144	-395.386	290.8926	993.3888	-367.6662	295.1195	989.2575	-419.9047	330.2969	839.8961	-452.2114	371.3332	766.6822	-447.1463	326.5863	762.9347	-446.6541	379.7454	687.1469	-457.528	330.928	683.9604	-451.84	376.2365	906.7967	-66.1633	187.05	923.9514	-152.3501	380.5582	893.3765	-328.2683	189.2958	918.6161	-255.6874	285.82	966.2166	-41.0323	288.9671	938.7815	-366.3618	134.1244	1309.3027	-322.3601	119.6481	1209.4299	-314.0942	210.7516	1293.6545	-436.6454
156	0.775	208.6198	1374.5817	-206.1801	336.434	1302.3348	-199.1127	208.6611	1315.7795	-39.8555	247.54	1311.8629	-8.9588	268.5523	1346.4216	-29.2143	229.2751	1324.2069	-372.002	268.2096	1316.0898	-403.7927	292.176	1351.4562	-373.952	391.2231	1112.3904	-195.1625	158.2456	1191.3931	-216.6266	314.4697	1124.9147	-1.3561	250.037	986.4151	-32.7142	256.4804	995.3229	35.6004	311.6044	841.092	61.0096	363.9827	779.4812	45.6142	314.9883	771.8081	60.7923	386.9136	697.3356	59.7541	337.7115	692.7231	70.8882	351.7524	1122.944	-395.4215	290.525	993.551	-367.6838	295.1232	989.2648	-419.9062	330.2874	839.8987	-452.189	371.3299	766.6732	-447.0995	326.5628	762.957	-446.6541	379.7802	687.1072	-457.503	330.4103	684.8012	-452.0707	376.2265	906.797	-66.1681	187.0481	923.9413	-152.3377	380.582	893.3727	-328.2702	189.3185	918.6386	-255.6963	285.8594	966.1765	-40.9967	289.0322	938.692	-366.3096	134.1003	1309.2787	-322.3782	119.6315	1209.4388	-314.036	210.7512	1293.609	-436.6293
157	0.78	208.6172	1374.5808	-206.1778	336.7161	1302.6143	-199.0017	208.6324	1315.7869	-39.8288	247.5265	1311.8969	-8.9661	268.5571	1346.4673	-29.2573	229.0784	1324.3583	-372.2333	268.2089	1316.0802	-403.7916	292.1911	1351.4044	-374.0393	391.3164	1112.4058	-195.1781	158.2568	1191.4017	-216.6333	314.4524	1124.9497	-1.3603	250.0525	986.4279	-32.7052	256.4491	995.3073	35.6337	311.5744	841.0757	61.0321	363.9423	779.463	45.6566	314.9367	771.7663	60.7707	386.9701	697.2212	59.7431	337.5878	692.7805	70.8739	351.7199	1123.0034	-395.3874	290.5664	993.5605	-367.6572	295.1055	989.249	-419.8975	330.2779	839.899	-452.1874	371.3183	766.6936	-447.1257	326.5638	762.9465	-446.6377	379.7336	687.1562	-457.5	330.956	683.9496	-451.8229	376.2217	906.8042	-66.1765	187.0527	923.9658	-152.3428	380.5724	893.3746	-328.2621	189.3228	918.6224	-255.6984	285.8907	966.1179	-40.9842	288.9516	938.7656	-366.338	134.1471	1309.2649	-322.3766	119.6447	1209.4255	-314.1037	210.7454	1293.6145	-436.618
158	0.785	208.6091	1374.6029	-206.1952	336.7563	1302.6183	-199.0069	208.6425	1315.792	-39.8375	247.5266	1311.8982	-8.9597	268.5639	1346.4076	-29.261	229.1143	1324.2838	-372.1624	268.2076	1316.0825	-403.7972	292.2381	1351.5321	-374.4167	391.2652	1112.4078	-195.1841	158.2399	1191.3768	-216.6146	314.4328	1124.9401	-1.365	249.9852	986.4294	-32.6954	256.4275	995.3304	35.636	311.8107	841.1661	61.1657	363.8418	779.5632	45.6671	314.9182	771.7851	60.8222	386.965	697.1935	59.7309	337.6533	692.6789	70.8851	351.7664	1122.9562	-395.3981	290.8852	993.3725	-367.6532	295.1468	989.2503	-419.9007	330.258	839.8486	-452.1771	371.3725	766.6269	-447.0961	326.5891	762.9686	-446.6475	379.7158	687.2136	-457.5268	330.8706	684.3171	-451.8567	376.2197	906.8215	-66.1749	187.0592	923.9366	-152.355	380.6005	893.395	-328.2593	189.3281	918.6409	-255.6956	285.8297	966.1726	-41.0038	288.9752	938.756	-366.3323	134.0986	1309.2788	-322.3329	119.615	1209.4194	-314.0617	210.7335	1293.5804	-436.6224
159	0.79	208.6163	1374.5909	-206.1915	336.7301	1302.6005	-199.0073	208.6402	1315.7673	-39.874	247.5293	1311.8569	-8.9538	268.5598	1346.4183	-29.254	229.1974	1324.2645	-371.9688	268.2043	1316.0569	-403.8045	292.1551	1351.4243	-373.9713	391.3103	1112.4131	-195.2292	158.2471	1191.3791	-216.6302	314.4573	1124.9094	-1.376	249.9842	986.4282	-32.7153	256.4429	995.3677	35.6505	311.4792	841.1084	61.072	363.8907	779.4578	45.637	314.8064	771.8539	60.8149	386.8759	697.2481	59.7778	337.5885	692.6938	70.9284	351.7079	1122.9847	-395.4	290.5498	993.5371	-367.6833	295.126	989.2597	-419.8864	330.3004	839.881	-452.1769	371.3223	766.7125	-447.133	326.6078	762.967	-446.6474	379.7321	687.1596	-457.5394	330.44	684.7924	-452.0699	376.2296	906.8315	-66.1707	187.0463	923.9486	-152.3469	380.5736	893.4057	-328.2553	189.3311	918.6421	-255.6912	285.9164	966.1122	-40.9995	288.9754	938.736	-366.3515	134.0882	1309.2413	-322.3519	119.6022	1209.3975	-314.0388	210.7114	1293.5719	-436.5998
